<svg width="144" height="15" viewBox="0 0 144 15" fill="none" xmlns="http://www.w3.org/2000/svg">
<path d="M0.479403 14.8182V10.75H1.2294C1.48698 10.5152 1.7294 10.1837 1.95668 9.75568C2.18774 9.32386 2.38281 8.74811 2.5419 8.02841C2.70478 7.30492 2.81274 6.38636 2.86577 5.27273L3.11577 0.363636H10.0249V10.75H11.3658V14.7955H10.0249V12H1.82031V14.8182H0.479403ZM2.91122 10.75H8.68395V1.61364H4.38849L4.20668 5.27273C4.16122 6.12121 4.08168 6.89015 3.96804 7.57955C3.8544 8.26515 3.70857 8.87311 3.53054 9.40341C3.35251 9.92992 3.14607 10.3788 2.91122 10.75ZM16.8587 12.1818C16.0708 12.1818 15.3795 11.9943 14.7848 11.6193C14.1939 11.2443 13.7318 10.7197 13.3984 10.0455C13.0689 9.37121 12.9041 8.58333 12.9041 7.68182C12.9041 6.77273 13.0689 5.97917 13.3984 5.30114C13.7318 4.62311 14.1939 4.09659 14.7848 3.72159C15.3795 3.34659 16.0708 3.15909 16.8587 3.15909C17.6465 3.15909 18.3359 3.34659 18.9268 3.72159C19.5215 4.09659 19.9837 4.62311 20.3132 5.30114C20.6465 5.97917 20.8132 6.77273 20.8132 7.68182C20.8132 8.58333 20.6465 9.37121 20.3132 10.0455C19.9837 10.7197 19.5215 11.2443 18.9268 11.6193C18.3359 11.9943 17.6465 12.1818 16.8587 12.1818ZM16.8587 10.9773C17.4571 10.9773 17.9496 10.8239 18.3359 10.517C18.7223 10.2102 19.0083 9.80682 19.1939 9.30682C19.3795 8.80682 19.4723 8.26515 19.4723 7.68182C19.4723 7.09848 19.3795 6.55492 19.1939 6.05114C19.0083 5.54735 18.7223 5.14015 18.3359 4.82955C17.9496 4.51894 17.4571 4.36364 16.8587 4.36364C16.2602 4.36364 15.7678 4.51894 15.3814 4.82955C14.995 5.14015 14.709 5.54735 14.5234 6.05114C14.3378 6.55492 14.245 7.09848 14.245 7.68182C14.245 8.26515 14.3378 8.80682 14.5234 9.30682C14.709 9.80682 14.995 10.2102 15.3814 10.517C15.7678 10.8239 16.2602 10.9773 16.8587 10.9773ZM29.3374 0L30.0192 0.818181C29.754 1.07576 29.4472 1.25568 29.0987 1.35795C28.7502 1.46023 28.3563 1.52273 27.9169 1.54545C27.4775 1.56818 26.9889 1.59091 26.451 1.61364C25.8449 1.63636 25.343 1.78409 24.9453 2.05682C24.5476 2.32955 24.2408 2.72348 24.0249 3.23864C23.8089 3.75379 23.6707 4.38636 23.6101 5.13636H23.7237C24.0192 4.59091 24.4283 4.18939 24.951 3.93182C25.4737 3.67424 26.0343 3.54545 26.6328 3.54545C27.3146 3.54545 27.9283 3.70455 28.4737 4.02273C29.0192 4.34091 29.451 4.8125 29.7692 5.4375C30.0874 6.0625 30.2464 6.83333 30.2464 7.75C30.2464 8.66288 30.0836 9.45076 29.7578 10.1136C29.4358 10.7765 28.9832 11.2879 28.3999 11.6477C27.8203 12.0038 27.1404 12.1818 26.3601 12.1818C25.5798 12.1818 24.8961 11.9981 24.3089 11.6307C23.7218 11.2595 23.2654 10.7102 22.9396 9.98295C22.6139 9.25189 22.451 8.34848 22.451 7.27273V6.34091C22.451 4.39773 22.7805 2.92424 23.4396 1.92045C24.1025 0.916666 25.0987 0.397727 26.4283 0.363636C26.898 0.348485 27.3165 0.344697 27.6839 0.352272C28.0514 0.359848 28.3714 0.342803 28.6442 0.301136C28.9169 0.259469 29.148 0.159091 29.3374 0ZM26.3601 10.9773C26.8866 10.9773 27.3393 10.8447 27.718 10.5795C28.1006 10.3144 28.3942 9.94129 28.5987 9.46023C28.8033 8.97538 28.9055 8.4053 28.9055 7.75C28.9055 7.11364 28.8014 6.57197 28.593 6.125C28.3885 5.67803 28.0949 5.33712 27.7124 5.10227C27.3298 4.86742 26.8714 4.75 26.3374 4.75C25.9472 4.75 25.5968 4.81629 25.2862 4.94886C24.9756 5.08144 24.7105 5.27651 24.4908 5.53409C24.2711 5.79167 24.1006 6.10606 23.9794 6.47727C23.862 6.84848 23.7995 7.27273 23.7919 7.75C23.7919 8.72727 24.0211 9.50947 24.4794 10.0966C24.9377 10.6837 25.5646 10.9773 26.3601 10.9773ZM34.8658 12.2045C34.3127 12.2045 33.8108 12.1004 33.3601 11.892C32.9093 11.6799 32.5514 11.375 32.2862 10.9773C32.0211 10.5758 31.8885 10.0909 31.8885 9.52273C31.8885 9.02273 31.987 8.61742 32.1839 8.30682C32.3809 7.99242 32.6442 7.74621 32.9737 7.56818C33.3033 7.39015 33.6669 7.25758 34.0646 7.17045C34.4661 7.07955 34.8696 7.00758 35.2749 6.95455C35.8052 6.88636 36.2351 6.83523 36.5646 6.80114C36.898 6.76326 37.1404 6.70076 37.2919 6.61364C37.4472 6.52652 37.5249 6.375 37.5249 6.15909V6.11364C37.5249 5.55303 37.3714 5.11742 37.0646 4.80682C36.7616 4.49621 36.3014 4.34091 35.6839 4.34091C35.0438 4.34091 34.5419 4.48106 34.1783 4.76136C33.8146 5.04167 33.5589 5.34091 33.4112 5.65909L32.1385 5.20455C32.3658 4.67424 32.6688 4.26136 33.0476 3.96591C33.4302 3.66667 33.8468 3.45833 34.2976 3.34091C34.7521 3.2197 35.1991 3.15909 35.6385 3.15909C35.9188 3.15909 36.2408 3.19318 36.6044 3.26136C36.9718 3.32576 37.326 3.46023 37.6669 3.66477C38.0116 3.86932 38.2976 4.17803 38.5249 4.59091C38.7521 5.00379 38.8658 5.55682 38.8658 6.25V12H37.5249V10.8182H37.4567C37.3658 11.0076 37.2143 11.2102 37.0021 11.4261C36.79 11.642 36.5078 11.8258 36.1555 11.9773C35.8033 12.1288 35.3733 12.2045 34.8658 12.2045ZM35.0703 11C35.6006 11 36.0476 10.8958 36.4112 10.6875C36.7786 10.4792 37.0552 10.2102 37.2408 9.88068C37.4302 9.55114 37.5249 9.20455 37.5249 8.84091V7.61364C37.468 7.68182 37.343 7.74432 37.1499 7.80114C36.9605 7.85417 36.7408 7.90151 36.4908 7.94318C36.2446 7.98106 36.004 8.01515 35.7692 8.04545C35.5381 8.07197 35.3506 8.0947 35.2067 8.11364C34.8582 8.15909 34.5324 8.23295 34.2294 8.33523C33.9302 8.43371 33.6877 8.58333 33.5021 8.78409C33.3203 8.98106 33.2294 9.25 33.2294 9.59091C33.2294 10.0568 33.4018 10.4091 33.7464 10.6477C34.0949 10.8826 34.5362 11 35.0703 11ZM41.3132 12V3.27273H44.8814C45.8208 3.27273 46.567 3.48485 47.12 3.90909C47.6731 4.33333 47.9496 4.89394 47.9496 5.59091C47.9496 6.12121 47.7924 6.5322 47.478 6.82386C47.1636 7.11174 46.7602 7.30682 46.2678 7.40909C46.5897 7.45455 46.9022 7.56818 47.2053 7.75C47.5121 7.93182 47.7659 8.18182 47.9666 8.5C48.1674 8.81439 48.2678 9.20076 48.2678 9.65909C48.2678 10.1061 48.1541 10.5057 47.9268 10.858C47.6996 11.2102 47.3738 11.4886 46.9496 11.6932C46.5253 11.8977 46.0178 12 45.4268 12H41.3132ZM42.5859 10.7727H45.4268C45.889 10.7727 46.2507 10.6629 46.5121 10.4432C46.7734 10.2235 46.9041 9.92424 46.9041 9.54545C46.9041 9.0947 46.7734 8.74053 46.5121 8.48295C46.2507 8.22159 45.889 8.09091 45.4268 8.09091H42.5859V10.7727ZM42.5859 6.93182H44.8814C45.2412 6.93182 45.55 6.88258 45.8075 6.78409C46.0651 6.68182 46.2621 6.53788 46.3984 6.35227C46.5386 6.16288 46.6087 5.93939 46.6087 5.68182C46.6087 5.31439 46.4553 5.02651 46.1484 4.81818C45.8416 4.60606 45.4193 4.5 44.8814 4.5H42.5859V6.93182ZM51.6385 10.0227L55.843 3.27273H57.3885V12H56.0476V5.25L51.8658 12H50.2976V3.27273H51.6385V10.0227ZM58.657 4.52273V3.27273H65.7479V4.52273H62.8842V12H61.5433V4.52273H58.657ZM68.8629 6.43182H71.3629C72.3857 6.43182 73.1679 6.69129 73.7095 7.21023C74.2512 7.72917 74.522 8.38636 74.522 9.18182C74.522 9.70455 74.4008 10.1799 74.1584 10.608C73.916 11.0322 73.5599 11.3712 73.0902 11.625C72.6205 11.875 72.0447 12 71.3629 12H67.7038V3.27273H69.0447V10.75H71.3629C71.8932 10.75 72.3288 10.6098 72.6697 10.3295C73.0107 10.0492 73.1811 9.68939 73.1811 9.25C73.1811 8.78788 73.0107 8.41098 72.6697 8.11932C72.3288 7.82765 71.8932 7.68182 71.3629 7.68182H68.8629V6.43182ZM80.5178 9.77273H81.9496C81.9799 10.1667 82.1579 10.4659 82.4837 10.6705C82.8132 10.875 83.2412 10.9773 83.7678 10.9773C84.3056 10.9773 84.7659 10.8674 85.1484 10.6477C85.531 10.4242 85.7223 10.0644 85.7223 9.56818C85.7223 9.27652 85.6503 9.02273 85.5064 8.80682C85.3625 8.58712 85.1598 8.41667 84.8984 8.29545C84.6371 8.17424 84.3284 8.11364 83.9723 8.11364H82.4723V6.90909H83.9723C84.5064 6.90909 84.9003 6.78788 85.1541 6.54545C85.4117 6.30303 85.5405 6 85.5405 5.63636C85.5405 5.24621 85.4022 4.93371 85.1257 4.69886C84.8492 4.46023 84.4571 4.34091 83.9496 4.34091C83.4382 4.34091 83.0121 4.45644 82.6712 4.6875C82.3303 4.91477 82.1503 5.20833 82.1314 5.56818H80.7223C80.7375 5.09848 80.8814 4.68371 81.1541 4.32386C81.4268 3.96023 81.7981 3.67614 82.2678 3.47159C82.7375 3.26326 83.2753 3.15909 83.8814 3.15909C84.495 3.15909 85.0272 3.26705 85.478 3.48295C85.9325 3.69508 86.2829 3.98485 86.5291 4.35227C86.7791 4.71591 86.9041 5.12879 86.9041 5.59091C86.9041 6.08333 86.7659 6.48106 86.4893 6.78409C86.2128 7.08712 85.8662 7.30303 85.4496 7.43182V7.52273C85.7791 7.54545 86.0651 7.65152 86.3075 7.84091C86.5537 8.02652 86.745 8.27083 86.8814 8.57386C87.0178 8.87311 87.0859 9.20455 87.0859 9.56818C87.0859 10.0985 86.9439 10.5606 86.6598 10.9545C86.3757 11.3447 85.9856 11.6477 85.4893 11.8636C84.9931 12.0758 84.4268 12.1818 83.7905 12.1818C83.1731 12.1818 82.62 12.0814 82.1314 11.8807C81.6428 11.6761 81.2545 11.3939 80.9666 11.0341C80.6825 10.6705 80.5329 10.25 80.5178 9.77273ZM91.5376 12.2045C90.9846 12.2045 90.4827 12.1004 90.032 11.892C89.5812 11.6799 89.2232 11.375 88.9581 10.9773C88.6929 10.5758 88.5604 10.0909 88.5604 9.52273C88.5604 9.02273 88.6589 8.61742 88.8558 8.30682C89.0528 7.99242 89.3161 7.74621 89.6456 7.56818C89.9751 7.39015 90.3388 7.25758 90.7365 7.17045C91.138 7.07955 91.5414 7.00758 91.9467 6.95455C92.477 6.88636 92.907 6.83523 93.2365 6.80114C93.5698 6.76326 93.8123 6.70076 93.9638 6.61364C94.1191 6.52652 94.1967 6.375 94.1967 6.15909V6.11364C94.1967 5.55303 94.0433 5.11742 93.7365 4.80682C93.4335 4.49621 92.9732 4.34091 92.3558 4.34091C91.7157 4.34091 91.2138 4.48106 90.8501 4.76136C90.4865 5.04167 90.2308 5.34091 90.0831 5.65909L88.8104 5.20455C89.0376 4.67424 89.3407 4.26136 89.7195 3.96591C90.102 3.66667 90.5187 3.45833 90.9695 3.34091C91.424 3.2197 91.871 3.15909 92.3104 3.15909C92.5907 3.15909 92.9126 3.19318 93.2763 3.26136C93.6437 3.32576 93.9979 3.46023 94.3388 3.66477C94.6835 3.86932 94.9695 4.17803 95.1967 4.59091C95.424 5.00379 95.5376 5.55682 95.5376 6.25V12H94.1967V10.8182H94.1286C94.0376 11.0076 93.8861 11.2102 93.674 11.4261C93.4619 11.642 93.1797 11.8258 92.8274 11.9773C92.4751 12.1288 92.0452 12.2045 91.5376 12.2045ZM91.7422 11C92.2725 11 92.7195 10.8958 93.0831 10.6875C93.4505 10.4792 93.727 10.2102 93.9126 9.88068C94.102 9.55114 94.1967 9.20455 94.1967 8.84091V7.61364C94.1399 7.68182 94.0149 7.74432 93.8217 7.80114C93.6323 7.85417 93.4126 7.90151 93.1626 7.94318C92.9164 7.98106 92.6759 8.01515 92.4411 8.04545C92.21 8.07197 92.0225 8.0947 91.8786 8.11364C91.5301 8.15909 91.2043 8.23295 90.9013 8.33523C90.602 8.43371 90.3596 8.58333 90.174 8.78409C89.9922 8.98106 89.9013 9.25 89.9013 9.59091C89.9013 10.0568 90.0736 10.4091 90.4183 10.6477C90.7668 10.8826 91.2081 11 91.7422 11ZM97.0533 14.5V10.75H97.7805C97.9586 10.5644 98.112 10.3636 98.2408 10.1477C98.3696 9.93182 98.4813 9.67614 98.576 9.38068C98.6745 9.08144 98.7578 8.7178 98.826 8.28977C98.8942 7.85795 98.9548 7.33712 99.0078 6.72727L99.3033 3.27273H104.849V10.75H106.19V14.5H104.849V12H98.3942V14.5H97.0533ZM99.3033 10.75H103.508V4.52273H100.553L100.326 6.72727C100.231 7.64015 100.114 8.4375 99.9737 9.11932C99.8336 9.80114 99.6101 10.3447 99.3033 10.75ZM110.538 12.2045C109.985 12.2045 109.483 12.1004 109.032 11.892C108.581 11.6799 108.223 11.375 107.958 10.9773C107.693 10.5758 107.56 10.0909 107.56 9.52273C107.56 9.02273 107.659 8.61742 107.856 8.30682C108.053 7.99242 108.316 7.74621 108.646 7.56818C108.975 7.39015 109.339 7.25758 109.737 7.17045C110.138 7.07955 110.541 7.00758 110.947 6.95455C111.477 6.88636 111.907 6.83523 112.237 6.80114C112.57 6.76326 112.812 6.70076 112.964 6.61364C113.119 6.52652 113.197 6.375 113.197 6.15909V6.11364C113.197 5.55303 113.043 5.11742 112.737 4.80682C112.433 4.49621 111.973 4.34091 111.356 4.34091C110.716 4.34091 110.214 4.48106 109.85 4.76136C109.487 5.04167 109.231 5.34091 109.083 5.65909L107.81 5.20455C108.038 4.67424 108.341 4.26136 108.719 3.96591C109.102 3.66667 109.519 3.45833 109.969 3.34091C110.424 3.2197 110.871 3.15909 111.31 3.15909C111.591 3.15909 111.913 3.19318 112.276 3.26136C112.644 3.32576 112.998 3.46023 113.339 3.66477C113.683 3.86932 113.969 4.17803 114.197 4.59091C114.424 5.00379 114.538 5.55682 114.538 6.25V12H113.197V10.8182H113.129C113.038 11.0076 112.886 11.2102 112.674 11.4261C112.462 11.642 112.18 11.8258 111.827 11.9773C111.475 12.1288 111.045 12.2045 110.538 12.2045ZM110.742 11C111.272 11 111.719 10.8958 112.083 10.6875C112.451 10.4792 112.727 10.2102 112.913 9.88068C113.102 9.55114 113.197 9.20455 113.197 8.84091V7.61364C113.14 7.68182 113.015 7.74432 112.822 7.80114C112.632 7.85417 112.413 7.90151 112.163 7.94318C111.916 7.98106 111.676 8.01515 111.441 8.04545C111.21 8.07197 111.022 8.0947 110.879 8.11364C110.53 8.15909 110.204 8.23295 109.901 8.33523C109.602 8.43371 109.36 8.58333 109.174 8.78409C108.992 8.98106 108.901 9.25 108.901 9.59091C108.901 10.0568 109.074 10.4091 109.418 10.6477C109.767 10.8826 110.208 11 110.742 11ZM122.826 7.02273V8.27273H118.008V7.02273H122.826ZM118.326 3.27273V12H116.985V3.27273H118.326ZM123.849 3.27273V12H122.508V3.27273H123.849ZM127.638 10.0227L131.843 3.27273H133.388V12H132.048V5.25L127.866 12H126.298V3.27273H127.638V10.0227ZM139.504 12.1818C138.663 12.1818 137.937 11.9962 137.327 11.625C136.721 11.25 136.254 10.7273 135.924 10.0568C135.598 9.38258 135.435 8.59848 135.435 7.70455C135.435 6.81061 135.598 6.02273 135.924 5.34091C136.254 4.6553 136.712 4.12121 137.299 3.73864C137.89 3.35227 138.579 3.15909 139.367 3.15909C139.822 3.15909 140.271 3.23485 140.714 3.38636C141.157 3.53788 141.56 3.78409 141.924 4.125C142.288 4.46212 142.577 4.90909 142.793 5.46591C143.009 6.02273 143.117 6.70833 143.117 7.52273V8.09091H136.39V6.93182H141.754C141.754 6.43939 141.655 6 141.458 5.61364C141.265 5.22727 140.988 4.92235 140.629 4.69886C140.272 4.47538 139.852 4.36364 139.367 4.36364C138.833 4.36364 138.371 4.49621 137.981 4.76136C137.594 5.02273 137.297 5.36364 137.089 5.78409C136.88 6.20455 136.776 6.6553 136.776 7.13636V7.90909C136.776 8.56818 136.89 9.12689 137.117 9.58523C137.348 10.0398 137.668 10.3864 138.077 10.625C138.487 10.8598 138.962 10.9773 139.504 10.9773C139.856 10.9773 140.174 10.928 140.458 10.8295C140.746 10.7273 140.994 10.5758 141.202 10.375C141.411 10.1705 141.572 9.91667 141.685 9.61364L142.981 9.97727C142.844 10.4167 142.615 10.803 142.293 11.1364C141.971 11.4659 141.574 11.7235 141.1 11.9091C140.627 12.0909 140.094 12.1818 139.504 12.1818Z" fill="white"/>
</svg>
