<svg width="67" height="12" viewBox="0 0 67 12" fill="none" xmlns="http://www.w3.org/2000/svg">
<path d="M0.232955 0.818182H1.44602V8.83239H1.54545L7.11364 0.818182H8.30682V11H7.07386V3.00568H6.97443L1.42614 11H0.232955V0.818182ZM10.6149 11V3.36364H13.737C14.559 3.36364 15.2119 3.54924 15.6958 3.92045C16.1797 4.29167 16.4217 4.7822 16.4217 5.39205C16.4217 5.85606 16.2842 6.21567 16.0091 6.47088C15.734 6.72277 15.381 6.89347 14.9501 6.98295C15.2318 7.02273 15.5053 7.12216 15.7704 7.28125C16.0389 7.44034 16.2609 7.65909 16.4366 7.9375C16.6123 8.21259 16.7001 8.55066 16.7001 8.9517C16.7001 9.3428 16.6007 9.69247 16.4018 10.0007C16.2029 10.3089 15.9179 10.5526 15.5467 10.7315C15.1755 10.9105 14.7314 11 14.2143 11H10.6149ZM11.7285 9.92614H14.2143C14.6187 9.92614 14.9352 9.83002 15.1639 9.63778C15.3926 9.44555 15.5069 9.18371 15.5069 8.85227C15.5069 8.45786 15.3926 8.14796 15.1639 7.92259C14.9352 7.69389 14.6187 7.57955 14.2143 7.57955H11.7285V9.92614ZM11.7285 6.56534H13.737C14.0519 6.56534 14.322 6.52225 14.5474 6.43608C14.7728 6.34659 14.9451 6.22064 15.0645 6.05824C15.1871 5.89252 15.2484 5.69697 15.2484 5.47159C15.2484 5.15009 15.1142 4.8982 14.8457 4.71591C14.5772 4.5303 14.2077 4.4375 13.737 4.4375H11.7285V6.56534ZM20.7234 11.179C20.2395 11.179 19.8003 11.0878 19.4059 10.9055C19.0115 10.7199 18.6983 10.4531 18.4663 10.1051C18.2343 9.75379 18.1183 9.32955 18.1183 8.83239C18.1183 8.39489 18.2044 8.04025 18.3768 7.76847C18.5491 7.49337 18.7795 7.27794 19.0678 7.12216C19.3562 6.96638 19.6744 6.85038 20.0224 6.77415C20.3737 6.6946 20.7267 6.63163 21.0813 6.58523C21.5453 6.52557 21.9215 6.48082 22.2099 6.45099C22.5015 6.41785 22.7137 6.36316 22.8462 6.28693C22.9821 6.2107 23.0501 6.07812 23.0501 5.8892V5.84943C23.0501 5.3589 22.9158 4.97775 22.6474 4.70597C22.3822 4.43419 21.9795 4.2983 21.4393 4.2983C20.8791 4.2983 20.44 4.42093 20.1218 4.66619C19.8036 4.91146 19.5799 5.1733 19.4506 5.4517L18.337 5.05398C18.5359 4.58996 18.801 4.22869 19.1325 3.97017C19.4672 3.70833 19.8318 3.52604 20.2262 3.4233C20.6239 3.31723 21.015 3.2642 21.3995 3.2642C21.6448 3.2642 21.9265 3.29403 22.2447 3.35369C22.5662 3.41004 22.8761 3.5277 23.1744 3.70668C23.476 3.88565 23.7262 4.15578 23.9251 4.51705C24.1239 4.87831 24.2234 5.36222 24.2234 5.96875V11H23.0501V9.96591H22.9904C22.9109 10.1316 22.7783 10.3089 22.5927 10.4979C22.4071 10.6868 22.1602 10.8475 21.8519 10.9801C21.5437 11.1127 21.1675 11.179 20.7234 11.179ZM20.9023 10.125C21.3664 10.125 21.7575 10.0339 22.0756 9.85156C22.3971 9.66927 22.6391 9.43395 22.8015 9.1456C22.9672 8.85724 23.0501 8.55398 23.0501 8.2358V7.16193C23.0004 7.22159 22.891 7.27628 22.7219 7.32599C22.5562 7.3724 22.364 7.41383 22.1452 7.45028C21.9298 7.48343 21.7193 7.51326 21.5138 7.53977C21.3117 7.56297 21.1476 7.58286 21.0217 7.59943C20.7167 7.6392 20.4317 7.70384 20.1665 7.79332C19.9047 7.8795 19.6926 8.01042 19.5302 8.18608C19.3711 8.35843 19.2915 8.59375 19.2915 8.89205C19.2915 9.29972 19.4424 9.60795 19.744 9.81676C20.0489 10.0223 20.435 10.125 20.9023 10.125ZM31.4757 6.64489V7.73864H27.2598V6.64489H31.4757ZM27.5382 3.36364V11H26.3649V3.36364H27.5382ZM32.3706 3.36364V11H31.1973V3.36364H32.3706ZM37.6156 11.1591C36.9262 11.1591 36.3213 10.995 35.801 10.6669C35.2839 10.3388 34.8796 9.87973 34.5879 9.28977C34.2995 8.69981 34.1554 8.01042 34.1554 7.22159C34.1554 6.42614 34.2995 5.73177 34.5879 5.13849C34.8796 4.54522 35.2839 4.08452 35.801 3.75639C36.3213 3.42827 36.9262 3.2642 37.6156 3.2642C38.305 3.2642 38.9082 3.42827 39.4252 3.75639C39.9456 4.08452 40.35 4.54522 40.6383 5.13849C40.93 5.73177 41.0758 6.42614 41.0758 7.22159C41.0758 8.01042 40.93 8.69981 40.6383 9.28977C40.35 9.87973 39.9456 10.3388 39.4252 10.6669C38.9082 10.995 38.305 11.1591 37.6156 11.1591ZM37.6156 10.1051C38.1393 10.1051 38.5701 9.97088 38.9082 9.70241C39.2463 9.43395 39.4965 9.08097 39.6589 8.64347C39.8213 8.20597 39.9025 7.73201 39.9025 7.22159C39.9025 6.71117 39.8213 6.23556 39.6589 5.79474C39.4965 5.35393 39.2463 4.99763 38.9082 4.72585C38.5701 4.45407 38.1393 4.31818 37.6156 4.31818C37.0919 4.31818 36.661 4.45407 36.323 4.72585C35.9849 4.99763 35.7347 5.35393 35.5723 5.79474C35.4099 6.23556 35.3287 6.71117 35.3287 7.22159C35.3287 7.73201 35.4099 8.20597 35.5723 8.64347C35.7347 9.08097 35.9849 9.43395 36.323 9.70241C36.661 9.97088 37.0919 10.1051 37.6156 10.1051ZM42.8668 11V3.36364H45.989C46.811 3.36364 47.4639 3.54924 47.9478 3.92045C48.4317 4.29167 48.6737 4.7822 48.6737 5.39205C48.6737 5.85606 48.5361 6.21567 48.261 6.47088C47.9859 6.72277 47.6329 6.89347 47.2021 6.98295C47.4838 7.02273 47.7572 7.12216 48.0224 7.28125C48.2908 7.44034 48.5129 7.65909 48.6886 7.9375C48.8642 8.21259 48.9521 8.55066 48.9521 8.9517C48.9521 9.3428 48.8526 9.69247 48.6538 10.0007C48.4549 10.3089 48.1699 10.5526 47.7987 10.7315C47.4274 10.9105 46.9833 11 46.4663 11H42.8668ZM43.9805 9.92614H46.4663C46.8706 9.92614 47.1871 9.83002 47.4158 9.63778C47.6445 9.44555 47.7589 9.18371 47.7589 8.85227C47.7589 8.45786 47.6445 8.14796 47.4158 7.92259C47.1871 7.69389 46.8706 7.57955 46.4663 7.57955H43.9805V9.92614ZM43.9805 6.56534H45.989C46.3039 6.56534 46.574 6.52225 46.7994 6.43608C47.0247 6.34659 47.1971 6.22064 47.3164 6.05824C47.439 5.89252 47.5004 5.69697 47.5004 5.47159C47.5004 5.15009 47.3661 4.8982 47.0977 4.71591C46.8292 4.5303 46.4596 4.4375 45.989 4.4375H43.9805V6.56534ZM54.8248 0.818182H56.0378V8.83239H56.1373L61.7054 0.818182H62.8986V11H61.6657V3.00568H61.5662L56.0179 11H54.8248V0.818182ZM66.0618 11.0795C65.8165 11.0795 65.6061 10.9917 65.4304 10.8161C65.2547 10.6404 65.1669 10.4299 65.1669 10.1847C65.1669 9.93939 65.2547 9.72893 65.4304 9.55327C65.6061 9.3776 65.8165 9.28977 66.0618 9.28977C66.3071 9.28977 66.5175 9.3776 66.6932 9.55327C66.8688 9.72893 66.9567 9.93939 66.9567 10.1847C66.9567 10.3471 66.9152 10.4962 66.8324 10.6321C66.7528 10.768 66.6451 10.8774 66.5092 10.9602C66.3767 11.0398 66.2275 11.0795 66.0618 11.0795Z" fill="#464646"/>
</svg>
